<?xml version="1.0" encoding="UTF-8"?>
<svg id="Capa_2" data-name="Capa 2" xmlns="http://www.w3.org/2000/svg" viewBox="0 0 461.39 70.7">
  <defs>
    <style>
      .cls-1, .cls-2 {
        stroke-width: 0px;
      }

      .cls-2 {
        fill: #5bdd40;
      }
    </style>
  </defs>
  <g id="OBJECTS">
    <g>
      <g>
        <polygon class="cls-2" points="12.79 0 43.55 40.78 31.49 40.78 31.49 70.7 0 29.68 12.91 29.32 12.79 0"/>
        <polygon class="cls-2" points="64.3 67.92 43.55 40.78 64.3 40.78 84.81 67.92 64.3 67.92"/>
        <polygon class="cls-2" points="26.9 10.62 62.01 10.62 84.81 40.78 64.3 40.78 53.81 27.26 39.09 27.14 26.9 10.62"/>
      </g>
      <g>
        <path class="cls-1" d="M143.77,7.66l8.02,6.02v24.06l-8.02,6.02h-2.66l10.68,24.06h-16.04l-10.68-24.06h-5.36v24.06h-16.04V19.69l-8.02-12.03h48.12ZM119.71,31.72h16.04v-12.03h-16.04v12.03Z"/>
        <path class="cls-1" d="M208.74,7.66v18.05h-16.04v-6.02h-16.04v12.03h16.04v12.03h-16.04v12.03h16.04v-6.02h16.04v18.05h-48.12V7.66h48.12Z"/>
        <path class="cls-1" d="M265.69,7.66v12.03h-16.04v48.12h-16.04V19.69h-16.04V7.66h48.12Z"/>
        <path class="cls-1" d="M314.61,7.66l8.02,6.02v48.12l-8.02,6.02h-32.08l-8.02-6.02V13.68l8.02-6.02h32.08ZM290.55,55.79h16.04V19.69h-16.04v36.09Z"/>
        <path class="cls-1" d="M379.58,7.66v18.05h-16.04v-6.02h-16.04v12.03h16.04v12.03h-16.04v24.06h-16.04V19.69l-8.02-12.03h56.15Z"/>
        <path class="cls-1" d="M388.41,7.66h16.04v60.16h-16.04V7.66Z"/>
        <path class="cls-1" d="M461.39,7.66v12.03h-16.04v48.12h-16.04V19.69h-16.04V7.66h48.12Z"/>
      </g>
    </g>
  </g>
</svg>